<svg width="512" height="512" viewBox="0 0 512 512" fill="none" xmlns="http://www.w3.org/2000/svg">
<path fill-rule="evenodd" clip-rule="evenodd" d="M256 20C122.043 20 13 125.414 13 256C13 386.586 122.048 492 256 492C389.957 492 499 386.585 499 256C499 125.414 389.952 20 256 20ZM222.308 39.8681C149.156 50.4752 87.6165 95.0934 55.1598 156.46C80.8857 165.963 160.502 192.416 192.771 168.976C224.907 145.633 223.668 66.2761 222.308 39.8681ZM33.8755 217.869C31.6245 230.255 30.4508 242.997 30.4508 256C30.4508 318.099 57.2235 374.255 100.266 414.092C117.168 393.119 166.205 327.718 153.71 289.248C141.166 250.635 60.3061 225.224 33.8755 217.869ZM155.289 451.616C185.582 466.289 219.777 474.551 256 474.551C292.236 474.551 326.442 466.284 356.743 451.602C342.013 429.279 295.343 363.612 256.021 363.612C216.69 363.612 170.008 429.307 155.289 451.616ZM411.758 414.071C454.787 374.235 481.549 318.088 481.549 256C481.549 243.001 480.376 230.263 478.126 217.88C451.654 225.249 370.869 250.652 358.332 289.248C345.84 327.702 394.841 393.074 411.758 414.071ZM456.846 156.473C424.397 95.1116 362.87 50.4932 289.733 39.8743C288.374 66.2883 287.137 145.634 319.27 168.976C351.525 192.403 431.082 165.986 456.846 156.473Z" fill="#1877F2"/>
<path d="M292.625 241.5C292.625 245.542 292.021 249.125 290.812 252.25C289.604 255.375 287.938 258.104 285.812 260.438C283.729 262.771 281.271 264.75 278.438 266.375C275.604 268 272.562 269.333 269.312 270.375C266.104 271.375 262.771 272.125 259.312 272.625C255.854 273.083 252.458 273.333 249.125 273.375V302.5H220C220 292.958 220.021 283.458 220.062 274C220.104 264.542 220.167 255 220.25 245.375C220.333 240.292 220.354 235.208 220.312 230.125C220.271 225.042 220.375 219.917 220.625 214.75C225.958 213.167 231.292 211.979 236.625 211.188C241.958 210.396 247.458 210 253.125 210C256.333 210 259.542 210.271 262.75 210.812C265.958 211.312 269.021 212.125 271.938 213.25C274.896 214.375 277.625 215.792 280.125 217.5C282.667 219.167 284.854 221.167 286.688 223.5C288.521 225.833 289.958 228.5 291 231.5C292.083 234.458 292.625 237.792 292.625 241.5ZM264.875 243.625C264.875 240.917 264.042 238.812 262.375 237.312C260.75 235.771 258.625 235 256 235C255.125 235 254.208 235.083 253.25 235.25C252.333 235.375 251.458 235.542 250.625 235.75L249.875 254C250.458 254.083 251.021 254.125 251.562 254.125C252.104 254.125 252.667 254.125 253.25 254.125C254.75 254.125 256.188 253.875 257.562 253.375C258.979 252.875 260.229 252.167 261.312 251.25C262.396 250.292 263.25 249.188 263.875 247.938C264.542 246.646 264.875 245.208 264.875 243.625Z" fill="white"/>
</svg>
