<svg width="1883" height="827" viewBox="0 0 1883 827" fill="none" xmlns="http://www.w3.org/2000/svg">
<g clip-path="url(#clip0_1_20)">
<path d="M1108.22 94.07C1063.59 32.58 984.3 0.0700073 885.47 0.0700073L577.87 0.720032L545.87 1.02997L435.87 2.11005L394.48 173.58L224.55 186.49L388.93 196.59L699.65 214.77L379.85 234.23L81.35 253.7L370.56 272.7L664.1 292.61L361.1 311.91L0.0999756 331.54L351.73 350.92L607.43 362.13L345.18 378.06L236.83 827.06H573.9L607.47 682.89C615.149 650.295 633.568 621.231 659.765 600.372C685.962 579.514 718.414 568.073 751.9 567.89C799.162 568.061 846.147 560.664 891.07 545.98C934.851 531.662 975.815 509.855 1012.14 481.53C1077.44 430.35 1121.73 361.82 1140.21 283.33C1156.76 212.51 1145.44 145.31 1108.22 94.07ZM918.04 283.25C895.24 380.12 820.54 380.12 796.04 380.12L678.54 380.77L724.14 187.07L841.64 186.43C936.05 186.39 921.84 267.07 918.04 283.25Z" fill="#1877F2"/>
<path d="M866.94 678.92C868.406 673.176 869.178 667.278 869.24 661.35C869.24 643.74 861.32 630.35 845.73 621.55C831.13 613.32 810.23 609.33 781.89 609.33C748.78 609.33 722.25 615.4 703.05 627.4C684.63 638.87 671.51 656.97 664.05 681.19L661.48 689.53H731.14L732.5 684.9C737.82 666.9 751.77 658.19 775.19 658.19C784.9 658.19 801.19 659.34 801.19 667.05C801.132 667.81 800.963 668.558 800.69 669.27L800.61 669.49C799.83 672.313 798.475 674.944 796.63 677.219C794.785 679.494 792.491 681.363 789.89 682.71C784.7 685.43 776.06 687.6 764.29 689.15C743.29 691.73 728.03 693.39 719.06 694.15H718.78C698.56 696.66 680.78 703.95 666.02 715.81C651.02 727.81 641.31 742.52 637.07 759.44C635.314 765.896 634.393 772.55 634.33 779.24C634.33 801.04 645.02 827.01 695.98 827.01C720.9 827.01 745.48 819.63 769.21 805.09C769.42 808.367 770.159 811.589 771.4 814.63L773.1 818.46H845.05L849.05 803.29L845.94 800.68C840.73 796.28 839.04 791.54 840.45 785.43L866.94 678.92ZM730.05 772.78C708.7 772.78 708.7 765.31 708.7 762.85C708.738 761.445 708.953 760.051 709.34 758.7C711.34 750.64 716.64 745.12 725.54 741.84H725.67C732.96 738.98 746.85 736.49 766.99 734.41C772.894 733.737 778.725 732.529 784.41 730.8C775.19 759.07 757.38 772.78 730.05 772.78Z" fill="#1877F2"/>
<path d="M1111.52 691.07L1111.38 697.38H1040.62L1040.47 691.09C1040.24 681.4 1038.08 674.72 1034.06 671.23C1029.87 667.6 1021.94 665.69 1011.06 665.69C984.39 665.69 966.86 683.77 957.49 721C955.524 728.15 954.452 735.516 954.3 742.93C954.3 763.84 964.01 773.16 985.78 773.16C994.58 773.16 1001.78 771.01 1007.9 766.56C1014.31 761.89 1021.16 753.43 1028.27 741.42L1030.14 738.26H1101.92L1097.33 747.56C1071.55 799.81 1028.49 826.3 969.33 826.3C940.02 826.3 917.51 820.3 902.44 808.36C886.91 796.08 879.03 777.66 879.03 753.61C879.181 741.991 880.811 730.438 883.88 719.23C892.02 687.23 907.15 661.36 928.88 642.29C953.88 620.43 986.19 609.35 1024.99 609.35C1058.59 609.35 1081.47 616.17 1094.99 630.2C1106.73 642.81 1112.14 662.69 1111.52 691.07Z" fill="#1877F2"/>
<path d="M1301.01 611.07L1285.28 673.24L1279.8 672.75C1272.16 672.05 1266.71 671.75 1263.55 671.75C1248.35 671.75 1235.47 675.17 1225.23 681.91C1215.23 688.53 1209.12 696.54 1206.7 706.39L1178.35 818.48H1106.14L1156.93 612.56H1230.12L1225 632.93C1230.28 628.725 1235.94 625.023 1241.91 621.87C1257.41 613.56 1272.2 609.36 1285.91 609.36C1288.61 609.444 1291.3 609.702 1293.97 610.13L1301.01 611.07Z" fill="#1877F2"/>
<path d="M1412.53 545.92L1398.09 603.34H1325.26L1340.26 545.92H1412.53Z" fill="#1877F2"/>
<path d="M1395.33 612.52L1343.98 818.45H1271.67L1323.02 612.52H1395.33Z" fill="#1877F2"/>
<path d="M1599.74 545.93L1578.87 628.7C1568.27 615.83 1551.43 609.33 1528.56 609.33C1493.29 609.33 1463.29 620.82 1439.42 643.49C1419.77 662.08 1406.11 686.13 1398.82 714.99C1396.44 724.589 1395.25 734.442 1395.26 744.33C1395.26 766.81 1401.08 785.86 1412.62 801.01C1425.9 818.01 1444.32 826.64 1467.34 826.64C1492.89 826.64 1514.87 820.8 1532.96 809.23L1530.15 819.52H1603.08L1672.08 545.93H1599.74ZM1556.4 717.93C1552.53 733.84 1544.79 746.93 1533.4 756.78C1522.01 766.63 1509.67 771.41 1495.69 771.41C1487.35 771.41 1480.82 768.81 1475.69 763.41C1470.56 758.01 1467.99 750.06 1467.99 739.72C1468.09 733.14 1469.02 726.6 1470.75 720.25C1474.91 703.31 1482.5 689.64 1493.3 679.65C1504.1 669.66 1515.77 664.97 1529.38 664.97C1538.73 664.97 1545.74 667.85 1550.82 673.77C1556.15 679.98 1558.74 688.28 1558.74 699.12C1558.69 705.443 1557.9 711.738 1556.4 717.88V717.93Z" fill="#1877F2"/>
<path d="M1856.49 630.41C1839.78 616.41 1816.9 609.33 1788.49 609.33C1753.67 609.33 1724.09 619.23 1700.49 638.76C1676.89 658.29 1660.59 686.26 1651.59 722.1C1649.06 731.682 1647.71 741.54 1647.59 751.45C1647.59 776.57 1657 796.07 1675.59 809.45C1691.24 820.64 1711.36 826.32 1735.38 826.32C1760.99 826.259 1786.23 820.172 1809.06 808.55C1832.71 796.69 1851.4 780.75 1864.6 761.15L1871.39 751.15H1796.71L1794.82 754.15C1791.82 758.93 1786.37 763.41 1778.82 767.39C1770.73 771.602 1761.77 773.843 1752.65 773.93C1741.53 773.93 1732.81 771.51 1726.71 766.7C1721 762.22 1718.23 756.25 1718.23 748.45C1718.14 744.808 1718.64 741.175 1719.7 737.69H1871.27L1872.86 733.54C1875.76 725.94 1877.49 720.66 1878.17 717.39C1880.73 708.093 1882.08 698.503 1882.17 688.86C1882.14 664.33 1873.54 644.7 1856.49 630.41ZM1809.03 684.86C1809.02 686.992 1808.89 689.122 1808.65 691.24H1733.87C1743.32 672.86 1758.66 663.89 1780.51 663.89C1805.8 663.89 1809.03 675.07 1809.03 684.86Z" fill="#1877F2"/>
</g>
<defs>
<clipPath id="clip0_1_20">
<rect width="1882.19" height="827" fill="white"/>
</clipPath>
</defs>
</svg>
